<?xml version="1.0" encoding="UTF-8" standalone="no"?>
<!-- Created with Inkscape (http://www.inkscape.org/) -->

<svg
   width="210mm"
   height="297mm"
   viewBox="0 0 210 297"
   version="1.1"
   id="svg1"
   xml:space="preserve"
   inkscape:version="1.3.2 (091e20e, 2023-11-25, custom)"
   sodipodi:docname="plakāts.svg"
   xmlns:inkscape="http://www.inkscape.org/namespaces/inkscape"
   xmlns:sodipodi="http://sodipodi.sourceforge.net/DTD/sodipodi-0.dtd"
   xmlns:xlink="http://www.w3.org/1999/xlink"
   xmlns="http://www.w3.org/2000/svg"
   xmlns:svg="http://www.w3.org/2000/svg"><sodipodi:namedview
     id="namedview1"
     pagecolor="#ffffff"
     bordercolor="#000000"
     borderopacity="0.25"
     inkscape:showpageshadow="2"
     inkscape:pageopacity="0.0"
     inkscape:pagecheckerboard="0"
     inkscape:deskcolor="#d1d1d1"
     inkscape:document-units="mm"
     inkscape:zoom="0.73139029"
     inkscape:cx="412.22861"
     inkscape:cy="561.25984"
     inkscape:window-width="1920"
     inkscape:window-height="1017"
     inkscape:window-x="-8"
     inkscape:window-y="-8"
     inkscape:window-maximized="1"
     inkscape:current-layer="svg1" /><defs
     id="defs1" /><g
     inkscape:label="Slānis 1"
     inkscape:groupmode="layer"
     id="layer1" /><text
     xml:space="preserve"
     style="font-size:15.977px;fill:#32f9f9;fill-opacity:1;stroke:#1d24be;stroke-width:0.638831;stroke-opacity:1"
     id="text1"
     y="18.327555"
     x="100.41107"
     transform="scale(1.0316705,0.96930171)"><tspan
       sodipodi:role="line"
       id="tspan1"
       style="font-style:normal;font-variant:normal;font-weight:normal;font-stretch:normal;font-family:Bahnschrift;-inkscape-font-specification:Bahnschrift;text-align:center;text-anchor:middle;fill:#32f9f9;fill-opacity:1;stroke:#1d24be;stroke-width:0.638831;stroke-opacity:1"
       x="100.41107"
       y="18.327555">Aizsardzība pret</tspan><tspan
       sodipodi:role="line"
       style="font-style:normal;font-variant:normal;font-weight:normal;font-stretch:normal;font-family:Bahnschrift;-inkscape-font-specification:Bahnschrift;text-align:center;text-anchor:middle;fill:#32f9f9;fill-opacity:1;stroke:#1d24be;stroke-width:0.638831;stroke-opacity:1"
       x="100.41107"
       y="38.404491"
       id="tspan2"> izsekošanu internetā</tspan></text><path
     style="fill:#4be0e0;fill-opacity:0.29918033;stroke:#060724;stroke-width:0.677069;stroke-opacity:1"
     d="m 24.237515,0.7235079 c -1.134821,5.3630874 -8.518533,9.1131095 -9.767357,14.1084041 -0.42734,1.709361 -0.07663,3.353832 -0.361754,5.064555 -0.166919,1.001514 -1.316309,9.305262 -0.723508,10.490865 0.152529,0.305057 0.570979,0.418449 0.723508,0.723508 0.21154,0.42308 1.140358,2.485155 1.447016,2.894031 0.161781,0.21571 0.5078,0.199972 0.723508,0.361755 0.811223,0.608417 0.973087,1.613402 1.80877,2.170522 1.190548,0.7937 3.419059,2.380536 4.702801,2.894034 0.22392,0.08957 0.489539,-0.05849 0.723508,0 0.708457,0.177114 1.21434,0.788045 1.80877,1.08526 0.54995,0.274976 1.297171,0.02069 1.80877,0.361754 0.224351,0.149569 0.109286,0.628832 0.361754,0.723508 0.798372,0.29939 1.71732,0.110998 2.532277,0.361755 0.773136,0.237886 1.413121,0.801235 2.170525,1.085262 1.104572,0.414216 7.967826,1.444705 9.405601,1.08526 1.106543,-0.276635 2.149245,-0.808625 3.255786,-1.08526 1.560501,-0.390125 3.477924,-0.135093 5.064556,-0.361754 1.726189,-0.2466 3.447102,-0.546111 5.064556,-1.085263 1.119254,-0.373083 5.242438,0 6.51157,0 1.059858,0 5.053825,-0.367117 5.788062,0 0.747289,0.373645 1.640076,0.787861 2.53228,1.085263 0.457586,0.15253 0.974042,-0.09459 1.447014,0 3.108664,0.621731 -0.335153,-0.102852 1.447017,1.085263 0.312735,0.208489 1.449482,-0.119764 1.808771,0 0.650949,0.216982 1.42122,0.897935 2.170522,1.08526 0.420862,0.105216 1.027825,-0.13973 1.447017,0 2.360041,0.78668 4.751724,1.235688 7.235079,1.808771 2.327442,0.537101 7.897013,2.095478 10.490864,1.447014 3.353168,-0.83829 6.635832,-1.759548 10.129112,-2.170523 1.08446,-0.127585 2.16597,-0.29364 3.25578,-0.361754 0.84245,-0.05265 1.70981,0.189801 2.53228,0 0.78819,-0.181891 1.42702,-0.766617 2.17052,-1.085263 0.44335,-0.190002 0.97908,0.116986 1.44702,0 0.60816,-0.152037 2.26083,-1.356532 2.53228,-1.447014 0.45758,-0.152529 0.97908,0.116983 1.44702,0 0.78475,-0.196188 1.37732,-0.926624 2.17052,-1.085262 0.35473,-0.07095 0.73431,0.08774 1.08526,0 0.68213,-0.170532 1.14173,-0.862915 1.80877,-1.085263 0.90651,-0.302167 2.32552,0.116284 3.25579,0 2.65246,-0.331557 5.61445,-0.748308 8.32034,-0.361754 2.29992,0.328562 4.67122,1.258244 6.87332,1.808771 0.7667,0.191674 1.41006,0.867987 2.17053,1.085262 0.5912,0.168916 1.21983,0.185074 1.80877,0.361755 2.27771,0.683312 1.17318,0.738161 3.25578,1.08526 1.75215,0.292025 3.68595,-0.34807 5.42631,0 0.72645,-0.08301 1.17879,0.566012 1.80877,0.723508 1.27215,0.318037 2.71114,0.13118 3.97929,0.361754 0.75035,0.136427 1.41675,0.607542 2.17053,0.723509 0.83428,0.128349 1.68983,-0.05266 2.53228,0 2.09927,-0.544735 3.83709,0.868486 5.78806,1.085262 1.31832,0.146479 2.65515,-0.07789 3.97929,0 1.02611,0.06036 10.7043,1.420966 11.57613,0.723506 0.0704,-0.05631 2.44009,-1.986145 2.53227,-2.170523 0.10786,-0.215709 -0.13377,-0.522843 0,-0.723508 0.14957,-0.224351 0.53285,-0.171093 0.72351,-0.361754 1.11037,-1.110367 -0.21136,-0.300789 0.36176,-1.447014 0.15253,-0.30506 0.57098,-0.418452 0.72351,-0.723509 0.10785,-0.215709 -0.0763,-0.494715 0,-0.723508 0.0539,-0.161782 0.30782,-0.199972 0.36175,-0.361754 0.36346,-1.090367 0,-2.843126 0,-3.979294 0,-0.927928 0.46449,-3.412056 0,-4.341048 -0.68953,-1.379051 -2.17475,-2.540725 -2.89403,-3.979293 -0.0539,-0.107855 0.0853,-0.276487 0,-0.361755 -0.19066,-0.190661 -0.57394,-0.137403 -0.72351,-0.361754 -0.0599,-0.0899 -0.34436,-2.807075 -0.36175,-2.89403 -0.20991,-1.049525 -0.91917,-1.731332 -1.08527,-2.894032 -0.18253,-1.277783 -0.27764,-9.65792 0,-10.490865 0.17885,-0.536526 1.20248,-3.0112473 1.44702,-3.2557853 0.10584,-0.1058418 2.11098,-1.236367 2.53228,-1.4470158 0.21571,-0.1078542 0.5078,0.1078542 0.72351,0 1.50553,-0.7527665 -0.38673,0.024974 0.36175,-0.7235079 0.19066,-0.1906611 0.48234,-0.2411692 0.72351,-0.3617539 0.36175,-0.3617539 0.76567,-0.6857714 1.08526,-1.0852618 0.4138,-0.5172464 1.66996,-3.1169811 1.80877,-3.2557856 0.74848,-0.7484818 -0.0293,1.1437793 0.72351,-0.361754 0.2852,-0.5704033 0,-1.86238143 0,-2.53227767"
     id="path3" /><path
     style="fill:none;fill-opacity:0.29918;stroke:none;stroke-width:0.415764;stroke-opacity:1"
     d="m -7.6172051,84.447058 c 6.4759808,-0.672395 13.8191577,-1.271762 20.9528471,-1.271762 0.776029,0 1.614808,-0.06958 2.328092,0 3.354926,0.327266 5.164903,1.123581 7.449903,1.695682 3.051584,0.764034 10.817384,1.510072 15.36542,1.589702 2.99029,0.05236 9.778732,0.125187 12.571707,-0.105981 0.850515,-0.07039 1.480714,-0.245613 2.328096,-0.31794 0.871941,-0.07442 1.875145,0.03485 2.793711,0 1.062136,-0.04029 4.204388,-0.28471 5.121808,-0.42392 1.396858,-0.211961 -0.93124,0 1.396858,-0.31794 0.420859,-0.05748 0.98848,-0.04401 1.396852,-0.10598 0.964581,-0.146367 2.605211,-0.518533 3.259335,-0.741861 0.192508,-0.06573 0.220216,-0.156104 0.465618,-0.21196 0.34705,-0.07899 1.004211,-0.03895 1.396854,-0.10598 0.351192,-0.05995 0.538596,-0.167275 0.931238,-0.21196 0.277643,-0.0316 0.67296,0.03919 0.931239,0 0.288765,-0.04382 0.176854,-0.168144 0.465619,-0.211961 0.27937,-0.04239 1.024362,0.0212 1.396858,0 2.589995,-0.147378 5.230077,-0.10598 7.915518,-0.10598 4.480832,0 9.034501,-0.05085 13.502945,0 3.495418,0.03978 6.808437,0.206242 10.243617,0.317941 1.00979,0.03283 3.71097,0.08606 4.65619,0 1.01146,-0.09209 4.20149,-0.529901 5.1218,-0.529901"
     id="path4" /><text
     xml:space="preserve"
     style="font-style:normal;font-variant:normal;font-weight:normal;font-stretch:normal;font-size:12.7px;font-family:Bahnschrift;-inkscape-font-specification:Bahnschrift;text-align:center;text-anchor:middle;fill:#503ced;fill-opacity:1;stroke:none;stroke-width:0.677069;stroke-opacity:1"
     id="text4"
     transform="translate(5.7880633,-11.214373)"><textPath
       xlink:href="#path4"
       startOffset="50%"
       id="textPath4"><tspan
         id="tspan4"
         style="font-size:12.7px;fill:#503ced;fill-opacity:1;stroke:none;stroke-width:0.677069">Izmanto VPN!!!</tspan></textPath></text><text
     xml:space="preserve"
     style="font-style:normal;font-variant:normal;font-weight:normal;font-stretch:normal;font-size:9.87778px;font-family:Bahnschrift;-inkscape-font-specification:Bahnschrift;text-align:center;text-anchor:middle;fill:#5d31e7;fill-opacity:0.99180299;stroke:none;stroke-width:0.677069;stroke-opacity:1"
     id="text5"
     transform="matrix(1.0143214,0,0,1.0561112,-1.6350599,-4.6083094)"><textPath
       xlink:href="#path6"
       startOffset="50%"
       id="textPath6"><tspan
         id="tspan5"
         style="font-size:9.87778px;fill:#5d31e7;fill-opacity:0.99180299;stroke:none;stroke-width:0.677069">Tas slēpj tavu IP adresi!</tspan></textPath></text><path
     style="fill:none;fill-opacity:0.991803;stroke:none;stroke-width:0.529598;stroke-opacity:1"
     d="m 10.123542,89.182266 c 4.140258,-0.138762 7.763273,0.183689 11.768556,0.183689 1.01999,0 2.973947,-0.15996 3.922853,0 2.486774,0.41921 0.275432,0.28362 2.179363,0.55108 0.912474,0.12819 3.667651,0.22177 4.358724,0.36739 1.231799,0.25957 2.500113,0.49494 3.922855,0.73478 0.305685,0.0515 2.360189,0.2599 2.615234,0.36738 2.493329,1.05079 -2.387852,-0.32905 1.74349,0.36739 0.381551,0.0643 0.504184,0.28994 0.871743,0.36739 1.112489,0.23443 3.932878,0.59807 5.23047,0.73478 0.857384,0.0903 1.879897,-0.0229 2.615237,0.18369 0.341925,0.0961 0.490192,0.30307 0.871746,0.36739 0.830484,0.14 2.594753,-0.047 3.486979,0 1.58582,0.0835 3.204504,0.30037 4.794598,0.36739 4.188071,0.17651 8.425881,0.18369 12.640301,0.18369 2.318173,0 8.068416,0.20616 10.025068,0 0.508214,-0.0535 0.80392,-0.30674 1.307618,-0.36738 0.676103,-0.0814 2.660016,-0.0675 3.48698,-0.1837 0.584784,-0.0821 0.794728,-0.40698 1.307619,-0.55108 0.241775,-0.0679 0.61184,0.0548 0.871741,0 0.947807,-0.19972 2.039462,-0.56424 3.05111,-0.73478 2.076289,-0.35001 -0.582023,0.59215 2.179361,-0.18369 0.120889,-0.034 -0.102729,-0.1404 0,-0.1837 0.334592,-0.141 1.372161,-0.10544 1.743491,-0.18369 0.36756,-0.0774 0.529818,-0.27132 0.871745,-0.36739 0.24178,-0.0679 0.61184,0.0548 0.871743,0 0.786398,-0.16571 1.248853,-0.355 2.179364,-0.55108 0.847275,-0.17854 2.247869,-0.0483 3.051119,-0.1837 0.38155,-0.0643 0.50418,-0.28993 0.87173,-0.36738 0.87175,-0.1837 0.65381,0.0918 1.30763,0 0.3082,-0.0433 0.56353,-0.1404 0.87174,-0.1837 1.02691,-0.14425 8.4371,-0.0591 9.58919,0.1837 0.12996,0.0274 -0.10274,0.14039 0,0.18369 0.46853,0.19745 1.99468,0.55108 2.61524,0.55108"
     id="path6" /><path
     style="fill:#83a1f1;fill-opacity:0.41803282;stroke:#000000;stroke-width:0.677069;stroke-opacity:1"
     d="m 45.580998,43.410475 c -1.729684,0.17431 -3.796062,0.270137 -5.426308,1.08526 -0.388874,0.194437 -0.672801,0.586021 -1.085262,0.723509 -0.343191,0.114398 -0.737429,-0.09938 -1.085263,0 -0.518523,0.148151 -0.951346,0.511079 -1.447017,0.723508 -1.38122,0.591952 -2.79958,0.267303 -3.979291,1.447017 -0.08527,0.08526 0.08526,0.276487 0,0.361754 -0.190661,0.190659 -0.555069,0.151204 -0.723508,0.361752 -0.982152,1.22769 -2.219521,6.53607 -2.894034,6.873327 -1.357889,0.678945 -8.374893,-0.687139 -9.405601,0 -0.224351,0.149566 -0.171093,0.532847 -0.361754,0.723506 -0.196868,0.196868 -1.536473,0.812966 -1.80877,1.085262 -0.277696,0.277696 -0.207662,1.13883 -0.361754,1.447017 -0.361754,0.723509 -0.723508,0.542631 -1.085262,1.085263 -1.362902,2.04435 -2.767607,2.87651 -3.61754,5.426307 -0.289403,0.86821 0.289404,2.025822 0,2.894031 3.215407,1.628201 -1.077063,1.430621 -1.085261,1.447017 -0.269296,0.538591 -0.112918,1.198179 -0.723508,1.808769 -0.08527,0.08527 -0.24117,0 -0.361754,0 -0.2411695,0.120586 -0.5739412,0.137406 -0.7235083,0.361754 -0.1337765,0.200665 0.076265,0.494715 0,0.723508 -0.1854827,0.556451 -0.8997789,1.252321 -1.0852618,1.808771 -0.076264,0.228793 0.076265,0.494713 0,0.723509 -0.1915446,0.574632 -0.8049366,1.248119 -1.0852619,1.808768 -0.2943166,0.588634 0,7.809505 0,9.04385 0,1.866918 -0.578985,4.503523 0.361754,6.149816 0.4230391,0.740317 1.2058465,1.205847 1.8087697,1.808771 0.4297182,0.429718 0.8988073,1.534665 1.4470163,1.808768 0.215708,0.107855 0.494714,-0.07626 0.723508,0 0.161781,0.05393 0.241169,0.241171 0.361754,0.361755 0.723507,0.24117 1.430649,0.53854 2.170523,0.723508 0.701906,0.175477 1.454288,-0.10232 2.170524,0 0.37749,0.05393 0.707772,0.307827 1.085262,0.361754 1.238999,0.176999 2.777646,-0.343328 3.979293,0 0.518522,0.148148 0.954224,0.504489 1.447016,0.723509 1.986879,0.883057 3.659669,1.294124 5.788065,2.170522 0.747977,0.307991 1.419471,0.784843 2.170522,1.085263 1.05477,0.42191 2.223212,0.56897 3.255785,1.08526 0.842368,0.42118 1.371883,1.30962 2.170526,1.80877 2.562516,1.60157 5.348382,2.81843 7.958584,4.34105 3.179821,1.85489 6.319052,3.7818 9.405604,5.78806 0.869725,0.56532 1.621629,1.31205 2.532277,1.80877 0.436475,0.23808 1.002324,0.13941 1.447017,0.36176 1.049718,0.52486 1.701718,2.09915 2.894031,2.89403 5.2002,3.4668 6.673514,3.64372 13.384897,3.97929 4.670206,0.23351 10.841411,0.60728 15.193666,-1.08526 1.860309,-0.72346 3.665104,-1.59297 5.426308,-2.53228 0.761336,-0.40604 4.433462,-2.88347 5.42631,-3.25578 1.040949,-0.39036 2.201099,-0.37195 3.255789,-0.72351 4.09963,-1.36655 2.22847,-1.46282 6.14981,-2.53228 0.34901,-0.0952 0.74938,0.13435 1.08527,0 0.31667,-0.12667 0.45718,-0.51045 0.7235,-0.72351 0.33951,-0.2716 0.8244,-0.37569 1.08527,-0.72351 0.1447,-0.19293 -0.12409,-0.5167 0,-0.7235 0.52642,-0.87739 1.51549,-1.38449 2.17052,-2.17053 0.86377,-1.03652 1.38037,-2.20225 2.17052,-3.25578 1.33716,-1.78288 3.72449,-3.7882 5.42631,-5.064559 1.24206,-0.931545 1.49425,-0.851963 2.89403,-1.085262 0.51113,-0.08519 2.83833,-1.077304 2.89404,-1.08526 0.71623,-0.10232 1.4506,0.07199 2.17052,0 2.08808,-0.208809 4.19783,-0.796354 6.14982,-1.447017 0.22879,-0.07626 0.5078,0.107855 0.7235,0 0.15253,-0.07626 0.24117,-0.24117 0.36176,-0.361754 0.36175,-0.24117 0.69639,-0.529072 1.08526,-0.723509 0.58081,-0.290406 1.28928,-0.333885 1.80877,-0.723508 0.48234,-0.361754 0.69288,-0.989243 1.08526,-1.447014 2.98423,-3.481602 2.89403,-3.971094 2.89403,-8.320342 0,-1.447016 0.12017,-2.899028 0,-4.341047 -0.16337,-1.960526 -1.02907,-3.671996 -1.80877,-5.426311 -1.84692,-4.155572 -4.6557,-6.478606 -8.32034,-9.043847 -1.33752,-0.936262 -2.55667,-2.081104 -3.97929,-2.894031 -0.99737,-0.569926 -2.5376,-1.810544 -3.61754,-2.170525 -0.34319,-0.114395 -0.73625,0.09518 -1.08526,0 -0.99397,-0.271084 -1.90932,-0.782272 -2.89403,-1.085263 -1.92412,-0.592034 -4.16336,-0.836954 -6.14982,-1.08526 -3.91219,-0.489024 -8.0363,0.557369 -11.93788,0 -0.37749,-0.05393 -0.70913,-0.299066 -1.08526,-0.361754 -0.71367,-0.118943 -1.45686,0.118944 -2.17053,0 -6.267054,-1.044509 -12.850493,-1.595011 -18.811201,-3.979293 -1.605249,-0.642099 -2.462559,-2.7075 -3.979294,-3.61754 -0.206801,-0.124082 -0.507801,0.107855 -0.723508,0 -0.30506,-0.15253 -0.450657,-0.518869 -0.723509,-0.723508 -0.215709,-0.161782 -0.532847,-0.171093 -0.723508,-0.361754 -0.08526,-0.08527 0.100333,-0.294865 0,-0.361755 -0.317278,-0.211518 -0.767982,-0.150233 -1.085263,-0.361754 -0.10033,-0.06689 0.08527,-0.276487 0,-0.361754 -0.15667,-0.15667 -1.213538,-0.567857 -1.447014,-0.723506 -0.02122,-0.01416 -1.813944,-1.689912 -2.170525,-1.808771 -0.457586,-0.15253 -1.015598,0.21571 -1.447014,0 -0.30506,-0.15253 -0.450657,-0.518869 -0.723509,-0.723508 -1.53734,-1.153004 0.08111,0.249494 -1.447017,-0.361754 -0.403677,-0.16147 -0.681582,-0.562036 -1.085259,-0.723509 -0.447842,-0.179133 -0.974045,0.0946 -1.447017,0 -0.529463,-0.105891 -2.911629,-0.551429 -3.255785,-0.723506 -0.15253,-0.07627 -0.199973,-0.307826 -0.361755,-0.361754 -0.228793,-0.07627 -0.507799,0.107855 -0.723508,0 -0.107855,-0.05393 0.08527,-0.276489 0,-0.361754 -0.08526,-0.08527 -0.2539,0.05393 -0.361754,0 -0.305057,-0.15253 -0.418449,-0.570979 -0.723509,-0.723508 -0.765929,-0.382966 -4.804934,0.08938 -5.788062,0 -1.32643,-0.120584 -2.654003,-0.229225 -3.979293,-0.361755 -0.729848,-0.07298 -1.651871,-0.880409 -2.170523,-0.361754 -1.001244,1.001244 2.18867,3.042364 -2.170525,2.170525 z"
     id="path7" /><path
     style="fill:#83a1f1;fill-opacity:0.418033;stroke:#000000;stroke-width:0.677069;stroke-opacity:1"
     d="M 185.57978,49.560292 144.33983,80.309378"
     id="path8" /><path
     style="fill:#83a1f1;fill-opacity:0.418033;stroke:#000000;stroke-width:0.677069;stroke-opacity:1"
     d="m 163.15103,46.666261 -24.59927,22.06699"
     id="path9" /><path
     style="fill:#83a1f1;fill-opacity:0.418033;stroke:#000000;stroke-width:0.677069;stroke-opacity:1"
     d="M 145.42509,43.048721 128.0609,61.136418"
     id="path10" /><path
     style="fill:#83a1f1;fill-opacity:0.418033;stroke:#000000;stroke-width:0.677069;stroke-opacity:1"
     d="M 130.95493,41.23995 117.93179,57.880633"
     id="path11" /><path
     style="fill:#83a1f1;fill-opacity:0.418033;stroke:#000000;stroke-width:0.677069;stroke-opacity:1"
     d="m 113.59074,45.580998 -9.4056,12.661389"
     id="path12" /><path
     style="fill:#83a1f1;fill-opacity:0.418033;stroke:#000000;stroke-width:0.677069;stroke-opacity:1"
     d="m 97.311815,48.113275 -6.149819,7.596833"
     id="path13" /><path
     style="fill:#83a1f1;fill-opacity:0.418033;stroke:#000000;stroke-width:0.677069;stroke-opacity:1"
     d="m 81.39464,45.580998 -2.532279,5.42631"
     id="path14" /><path
     style="fill:#83a1f1;fill-opacity:0.418033;stroke:#000000;stroke-width:0.677069;stroke-opacity:1"
     d="m 25.684531,41.601704 0.361754,13.746652"
     id="path15" /><path
     style="fill:#83a1f1;fill-opacity:0.418033;stroke:#000000;stroke-width:0.677069;stroke-opacity:1"
     d="m 16.278928,34.004871 2.532278,21.705237"
     id="path16" /><text
     xml:space="preserve"
     style="font-style:normal;font-variant:normal;font-weight:normal;font-stretch:normal;font-size:12.7px;font-family:Bahnschrift;-inkscape-font-specification:Bahnschrift;text-align:center;text-anchor:middle;fill:#18b916;fill-opacity:1;stroke:none;stroke-width:0.677069;stroke-opacity:1"
     id="text16"
     transform="translate(13.74665,-11.576127)"><textPath
       xlink:href="#path17"
       startOffset="50%"
       id="textPath17"><tspan
         id="tspan16"
         style="font-size:12.7px;fill:#18b916;fill-opacity:1;stroke:none;stroke-width:0.677069">Izmanto Inkognito režīmu!!!</tspan></textPath></text><path
     style="fill:none;fill-opacity:1;stroke:none;stroke-width:0.440721;stroke-opacity:1"
     d="m 33.552233,155.43887 c 0.763712,-0.35133 1.998891,-0.35921 2.897307,-0.61242 1.55165,-0.4373 3.151918,-1.06263 5.07029,-1.22482 1.024461,-0.0866 2.256972,-0.032 3.259472,-0.15311 2.326285,-0.28098 1.099523,-0.2693 2.897309,-0.45931 0.858462,-0.0907 -0.160964,0.27219 1.448652,0 0.317031,-0.0536 0.418926,-0.24165 0.724328,-0.3062 0.431905,-0.0913 0.975148,0.04 1.448655,0 0.820759,-0.0694 1.501533,-0.38835 2.17298,-0.45931 1.558012,-0.16466 9.202753,-0.003 10.864904,0.1531 0.634623,0.0596 1.194076,0.2193 1.810819,0.30621 0.867976,0.12231 1.754738,0.0431 2.535144,0.1531 0.161965,0.0228 0.209461,0.12083 0.362163,0.1531 0.824437,0.17427 3.432356,0.38758 3.983799,0.45931 2.067946,0.269 4.087172,0.66865 6.156778,0.91862 0.348231,0.0421 0.762564,-0.0685 1.086492,0 1.270476,0.26855 2.877968,0.61038 4.345962,0.76552 0.351351,0.0371 0.73826,-0.0421 1.086491,0 0.519107,0.0627 0.929543,0.24351 1.448652,0.30621 0.348229,0.0421 0.738263,-0.0421 1.086492,0 0.633785,0.0765 1.493923,0.34448 2.172979,0.45931 1.234726,0.20879 2.362494,0.10659 3.621636,0.3062 0.505507,0.0801 0.929545,0.24351 1.448655,0.30621 1.384881,0.16727 9.170958,0.008 10.502738,-0.1531 0.77867,-0.0941 1.37888,-0.39217 2.17298,-0.45931 0.35513,-0.03 0.73514,0.0371 1.08649,0 2.33269,-0.24654 4.54294,-0.80215 6.88111,-1.07173 0.47487,-0.0547 2.62172,-0.0754 2.89731,-0.1531 0.28411,-0.0801 0.41892,-0.24165 0.72433,-0.30621 0.57682,-0.12192 3.5321,-0.0384 4.34596,-0.1531 0.76826,-0.10826 1.37888,-0.39217 2.17298,-0.45931 0.35513,-0.03 0.72925,0.0252 1.08649,0 0.96794,-0.0682 1.62928,-0.36357 2.53514,-0.45931 0.86033,-0.0909 2.10778,0.0138 2.89731,-0.1531 0.30541,-0.0646 0.44023,-0.22614 0.72433,-0.30621 0.29619,-0.0835 4.20431,0 4.70812,0 0.90306,0 6.53313,0.055 6.88112,0.1531 0.2246,0.0633 0.12071,0.25518 0.36216,0.30621 0.32392,0.0685 0.73135,-0.03 1.08648,0 1.0571,0.0894 3.93816,0.37311 5.0703,0.61242 0.10797,0.0228 -0.11453,0.13696 0,0.1531 0.57263,0.0807 1.27093,-0.11412 1.81082,0 0.30539,0.0646 0.43152,0.23194 0.72431,0.3062 0.43722,0.36939 1.26025,0.0367 1.81082,0.15311 0.30541,0.0645 0.41894,0.24165 0.72433,0.3062 0.6977,0.14748 3.25173,-0.002 3.98381,0.15311 0.24144,0.051 0.10607,0.27011 0.36216,0.3062 2.8973,0.40828 1.01405,-0.0817 2.17297,0 4.5176,0.3183 5.00157,0.007 9.41626,-0.45931 1.0753,-0.11364 2.80804,-0.0385 3.62164,-0.1531 0.66779,-0.0941 1.1638,-0.34209 1.81081,-0.45931 3.06234,-0.55482 -0.40003,0.0806 1.81081,-0.1531 1.74888,-0.18483 -0.0179,-0.0728 1.0865,-0.30621 0.40539,-0.0857 1.49413,-0.0639 1.81082,-0.1531 0.2246,-0.0633 0.13755,-0.24291 0.36216,-0.30621 0.2009,-0.0566 0.50015,0.0379 0.72433,0 0.40413,-0.0683 0.68641,-0.23372 1.08649,-0.30621 0.45749,-0.0829 1.00345,-0.059 1.44865,-0.1531 0.10798,-0.0228 -0.0966,-0.12248 0,-0.1531 0.4319,-0.13694 0.98571,-0.18878 1.44865,-0.30621 0.29279,-0.0743 0.41893,-0.24165 0.72433,-0.3062 2.10466,-0.44487 3.7679,-1.11295 5.79461,-1.68414"
     id="path17" /><path
     style="fill:#9df398;fill-opacity:0.27459016;stroke:#000000;stroke-width:0.677069;stroke-opacity:1"
     d="m 53.901339,120.46407 c -0.844092,-0.24117 -1.659779,-0.62657 -2.532276,-0.72351 -2.040517,-0.22672 -9.977279,-0.42249 -11.937881,0.36175 -0.951241,0.3805 -5.452237,3.08241 -6.149819,3.9793 -1.378167,1.77193 -2.428769,3.72052 -3.255785,5.78806 -0.484489,1.21122 -0.696222,2.8531 -1.447014,3.97929 -0.06689,0.10034 -0.307827,-0.10785 -0.361755,0 -0.138588,0.27718 -0.129508,5.63179 0,6.14982 0.228418,0.91368 1.230562,1.42711 1.808769,2.17052 0.636847,0.8188 1.075282,1.7988 1.808771,2.53228 0.620008,0.62001 4.910084,3.24127 5.788062,3.61754 0.350491,0.15021 0.758282,0.16557 1.085262,0.36175 0.29246,0.17548 0.418449,0.57098 0.723509,0.72351 0.431416,0.21571 0.999175,-0.17913 1.447014,0 0.403677,0.16147 0.681585,0.56204 1.085263,0.72351 0.223919,0.0896 0.485618,-0.0396 0.723508,0 0.865926,0.14432 1.661186,0.61462 2.532277,0.72351 2.434854,0.30436 5.144185,0 7.596833,0 2.872986,0 5.825823,-0.16802 8.682095,0 8.159949,0.48 -4.454202,0.36175 3.61754,0.36175 5.42631,0 10.852618,0 16.278928,0 2.005849,0 4.166828,-0.24787 6.149816,0 1.447573,0.18095 2.901188,0.57952 4.341048,0.72351 0.719918,0.072 1.458685,-0.12942 2.170523,0 1.013658,0.1843 1.888291,0.86176 2.894033,1.08526 1.456032,0.32356 2.885014,0.7617 4.34105,1.08526 1.43204,0.31824 2.93368,0.30958 4.34104,0.72351 0.67456,0.1984 1.12664,0.91473 1.80877,1.08526 0.99481,0.824 2.19637,-0.23542 3.25579,0 2.26617,0.5036 4.65298,1.12559 6.87332,1.80877 1.83853,0.5657 2.16064,0.85793 3.9793,1.08527 0.47861,0.0598 0.97908,-0.11699 1.44701,0 0.98819,0.24704 1.5441,0.83821 2.53228,1.08526 0.46794,0.11698 0.96798,-0.0564 1.44702,0 1.57518,0.18531 3.14756,0.41246 4.7028,0.72351 0.86082,0.17216 1.66211,0.60748 2.53228,0.7235 3.47633,0.46351 9.54179,0 13.38489,0 1.89482,0 3.91119,0.18769 5.78807,0 0.49471,-0.0495 0.96467,-0.24117 1.44701,-0.36175 1.44702,-0.12058 2.89224,-0.26517 4.34105,-0.36175 0.36095,-0.0241 0.74938,0.13435 1.08526,0 0.31667,-0.12667 0.39557,-0.62981 0.72351,-0.72351 0.81161,-0.23189 1.74856,0.31349 2.53228,0 2.17204,-0.86882 0.1479,-0.4505 1.80877,-1.44702 3.05576,-1.83345 -0.39762,0.5208 1.80877,-0.36175 0.5598,-0.22392 0.86209,-0.93903 1.44701,-1.08526 1.13546,-0.28387 1.68215,-0.11938 2.89403,-0.36176 0.74784,-0.14956 1.42019,-0.58708 2.17053,-0.72351 0.5932,-0.10785 1.20884,0.06 1.80877,0 1.62185,-0.16218 2.71347,-0.72357 4.34104,-1.08526 0.47086,-0.10463 0.96841,0.0598 1.44702,0 4.95144,-0.61893 0.58996,0.0445 2.89403,-0.72351 0.34319,-0.11439 0.74207,0.1144 1.08527,0 0.16177,-0.0539 0.19997,-0.30782 0.36175,-0.36175 1.60259,-0.5342 3.77116,0.18996 5.42631,-0.36175 0.769,-0.25634 1.32629,-0.58281 2.17052,-0.72351 1.9048,-0.31747 3.83818,-0.0832 5.78806,-0.36176 0.88681,-0.12668 2.0861,-1.04304 2.89404,-1.44701 1.91392,-0.95696 1.06723,-0.70549 2.17052,-1.80877 0.52098,-0.52098 1.34931,-0.75782 1.80877,-1.44702 0.21152,-0.31728 0.0921,-0.81562 0.36175,-1.08526 0.0853,-0.0853 0.2539,0.0539 0.36176,0 0.4118,-0.2059 1.06895,-1.79246 1.44701,-2.17052 0.19067,-0.19066 0.53285,-0.1711 0.72351,-0.36176 0.3497,-0.34969 0.96468,-1.68818 1.08526,-2.17052 0.13869,-0.55474 -0.18046,-1.26737 0,-1.80877 0.29215,-0.87643 0.60626,-1.91603 0.36176,-2.89403 -0.23827,-0.95308 -0.98724,-1.40423 -1.44702,-2.17052 -0.19619,-0.32699 -0.12354,-0.78751 -0.36175,-1.08527 -0.67832,-0.8479 -0.9931,-0.40439 -1.44702,-1.08526 -1.04552,-1.56829 -2.57993,-4.64359 -4.34105,-5.42631 -5.68414,-2.52628 -0.76896,-0.48991 -4.34104,-1.08526 -0.95121,-0.15854 -1.90236,-0.91998 -2.89403,-1.08526 -0.87194,-0.14533 -2.07377,-0.0337 -2.89404,-0.36176 -0.40367,-0.16147 -0.68158,-0.56203 -1.08526,-0.7235 -0.67261,-0.26905 -2.14883,0 -2.89403,0 -3.6937,0 -7.9906,0.53462 -11.57613,-0.36176 -1.48895,-0.37223 -4.07958,-1.72424 -5.42631,-2.53228 -0.517,-0.3102 -0.90774,-0.81562 -1.44701,-1.08526 -0.69916,-0.34958 -1.76918,-0.89448 -2.53228,-1.08526 -0.11698,-0.0293 -0.27649,0.0853 -0.36175,0 -0.82414,-0.82413 -0.92174,-1.42125 -2.17053,-2.17052 -0.2068,-0.12408 -0.52284,0.13377 -0.72351,0 -0.22435,-0.14957 -0.21218,-0.49916 -0.36175,-0.72351 -0.33444,-0.50166 -0.69928,-0.98384 -1.08526,-1.44702 -0.82659,-0.99191 -3.13261,-3.37585 -4.34105,-3.61754 -0.35473,-0.0709 -0.73743,0.0994 -1.08526,0 -1.03531,-0.51765 -1.4677,-0.81911 -2.53228,-1.08526 -1.12652,-0.28163 -2.82867,0 -3.97929,0 -2.57401,0 -6.34615,-0.0827 -8.6821,1.08526 -0.30506,0.15253 -0.40683,0.59684 -0.7235,0.72351 -0.33588,0.13436 -0.74654,-0.12702 -1.08527,0 -0.30318,0.1137 -3.7971,1.8597 -4.34104,2.17052 -1.25924,0.71957 -2.3583,1.81272 -3.61754,2.53228 -1.23983,0.70847 -1.75031,0.0783 -3.25579,0.72351 -0.24783,0.10622 -0.14604,0.56173 -0.36175,0.72351 -0.15397,0.11548 -2.27514,0.99955 -2.53228,1.08526 -0.22879,0.0763 -0.51671,-0.12408 -0.72351,0 -0.43869,0.26322 -0.64657,0.82205 -1.08526,1.08526 -0.2068,0.12408 -0.48234,0 -0.72351,0 -0.48234,0.36176 -1.02068,0.65893 -1.44701,1.08526 -0.0853,0.0853 0.10785,0.30783 0,0.36176 -0.35438,0.17719 -1.41819,-0.0781 -1.80877,0 -0.97918,-0.61483 -0.93542,0.55297 -1.44702,0.72351 -0.45759,0.15253 -0.97404,-0.0946 -1.44702,0 -1.18323,0.23664 -2.02328,0.36175 -3.25578,0.36175 -0.64082,0 -2.70505,-0.36715 -3.25579,0 -0.28378,0.18919 -0.43972,0.53432 -0.7235,0.72351 -0.0279,0.0186 -6.00861,0.0706 -6.14982,0 -0.15253,-0.0763 -0.24117,-0.24117 -0.36175,-0.36176 -0.48234,0 -0.98324,0.13251 -1.44702,0 -0.61784,-0.17652 -1.59378,-0.79688 -2.17052,-1.08526 -0.331077,-0.16553 -1.20157,0.24545 -1.447021,0 -0.190662,-0.19066 -0.137404,-0.57394 -0.361754,-0.72351 -0.119671,-0.0798 -2.96757,-0.50586 -3.255786,-0.36175 -0.107854,0.0539 0.08527,0.27649 0,0.36175 -0.08526,0.0853 -0.276486,-0.0853 -0.361754,0 -0.30743,0.30744 -0.384005,0.81367 -0.723508,1.08527 -0.297762,0.23821 -0.75828,0.16556 -1.08526,0.36175 -0.438693,0.26322 -0.599919,0.92348 -1.085263,1.08526 -0.228793,0.0763 -0.48954,-0.0585 -0.723508,0 -1.74689,0.43672 0.01794,0.17192 -1.085263,0.72351 -0.350234,0.17512 -1.133681,0.15286 -1.447014,0.36175 -0.283784,0.18919 -0.439724,0.53432 -0.723508,0.72351 -0.556885,0.37126 -2.01358,0.016 -2.532277,0.36176 -0.283784,0.18919 -0.418452,0.57097 -0.723509,0.7235 -0.737896,0.36895 -4.213965,0 -5.064556,0 -3.93759,0 -9.825818,0.68454 -13.02314,-1.44701 -0.03369,-0.0225 -1.428531,-1.7718 -1.447017,-1.80877 -0.107855,-0.21571 0.107854,-0.5078 0,-0.72351 -0.15253,-0.30506 -0.570979,-0.41845 -0.723509,-0.72351 -0.05393,-0.10785 0.08527,-0.27648 0,-0.36175 -0.08526,-0.0853 -0.276487,0.0853 -0.361754,0 -0.426331,-0.42633 -0.545989,-1.17738 -1.08526,-1.44702 -0.107855,-0.0539 -0.276489,0.0853 -0.361754,0 -0.190661,-0.19066 -0.137403,-0.57394 -0.361754,-0.7235 -0.361754,-0.24118 -0.723509,0.12058 -1.085263,0 -0.962977,-0.321 -3.709101,-1.58212 -4.702802,-1.08527 -0.62022,0.31011 -0.148336,0.70182 -0.723508,1.08527 -0.585034,0.39002 -1.205847,0.7235 -1.808769,1.08526 z"
     id="path18" /><path
     style="fill:#9df398;fill-opacity:0.27459;stroke:#000000;stroke-width:0.677069;stroke-opacity:1"
     d="M 13.74665,96.588306 31.834349,126.25213"
     id="path19" /><path
     style="fill:#9df398;fill-opacity:0.27459;stroke:#000000;stroke-width:0.677069;stroke-opacity:1"
     d="m 30.387332,100.92935 10.12911,18.0877"
     id="path20" /><path
     style="fill:#9df398;fill-opacity:0.27459;stroke:#000000;stroke-width:0.677069;stroke-opacity:1"
     d="m 45.942752,108.88794 3.61754,10.49087"
     id="path21" /><path
     style="fill:#9df398;fill-opacity:0.27459;stroke:#000000;stroke-width:0.677069;stroke-opacity:1"
     d="m 72.712545,122.99634 -0.361755,2.89404"
     id="path22" /><path
     style="fill:#9df398;fill-opacity:0.27459;stroke:#000000;stroke-width:0.677069;stroke-opacity:1"
     d="m 78.862361,123.71985 1.808771,3.9793"
     id="path23" /><path
     style="fill:#9df398;fill-opacity:0.27459;stroke:#000000;stroke-width:0.677069;stroke-opacity:1"
     d="m 88.991473,120.82582 -1.808771,3.61754"
     id="path24" /><path
     style="fill:#9df398;fill-opacity:0.27459;stroke:#000000;stroke-width:0.677069;stroke-opacity:1"
     d="m 103.82339,113.95249 -1.08527,10.12912"
     id="path25" /><path
     style="fill:#9df398;fill-opacity:0.27459;stroke:#000000;stroke-width:0.677069;stroke-opacity:1"
     d="m 115.39951,108.88794 0.36176,14.47016"
     id="path26" /><path
     style="fill:#9df398;fill-opacity:0.27459;stroke:#000000;stroke-width:0.677069;stroke-opacity:1"
     d="m 128.42265,96.226552 0.36176,22.066988"
     id="path27" /><path
     style="fill:#9df398;fill-opacity:0.27459;stroke:#000000;stroke-width:0.677069;stroke-opacity:1"
     d="M 142.53106,91.885504 142.1693,109.9732"
     id="path28" /></svg>
